#N canvas 454 307 441 406 10;
#X obj 104 296 canvasvisible;
#X obj 104 331 tgl 15 0 empty empty empty 17 7 0 10 -262144 -1 -1 0
1;
#X msg 76 233 bang;
#X text 196 296 arg: getdir/iemguts style depth;
#X obj 116 264 tgl 15 0 empty empty empty 17 7 0 10 -262144 -1 -1 0
1;
#N canvas 0 22 450 300 sub 0;
#X obj 117 35 inlet;
#X obj 128 220 outlet;
#X obj 128 109 canvasvisible;
#X text 220 109 arg: getdir/iemguts style depth;
#X connect 0 0 2 0;
#X connect 2 0 1 0;
#X restore 83 122 pd sub;
#X msg 66 65 bang;
#X obj 106 96 tgl 15 0 empty empty empty 17 7 0 10 -262144 -1 -1 1
1;
#X text 99 64 query state;
#X text 129 93 <-- toggle canvas visibility;
#X obj 83 151 tgl 15 0 empty empty empty 17 7 0 10 -262144 -1 -1 0
1;
#X connect 0 0 1 0;
#X connect 2 0 0 0;
#X connect 4 0 0 0;
#X connect 5 0 10 0;
#X connect 6 0 5 0;
#X connect 7 0 5 0;
